<svg xmlns:dc="http://purl.org/dc/elements/1.1/" xmlns:cc="http://creativecommons.org/ns#" xmlns:rdf="http://www.w3.org/1999/02/22-rdf-syntax-ns#" xmlns:svg="http://www.w3.org/2000/svg" xmlns="http://www.w3.org/2000/svg" xmlns:xlink="http://www.w3.org/1999/xlink" id="svg50807" viewBox="0 0 1024 768" height="768px" width="1024px" version="1.1">
  <metadata id="metadata50813">
    <rdf:rdf>
      <cc:work rdf:about="">
        <dc:format>image/svg+xml</dc:format>
        <dc:type rdf:resource="http://purl.org/dc/dcmitype/StillImage"></dc:type>
      </cc:work>
    </rdf:rdf>
  </metadata>
  <defs id="defs50811"></defs>
  <linearGradient spreadMethod="pad" y2="30%" x2="-10%" y1="120%" x1="30%" id="3d_gradient2-logo-b884d333-0c5b-4b62-a0bd-c4214cc8f5f5">
    <stop id="stop50788" stop-opacity="1" stop-color="#ffffff" offset="0%"></stop>
    <stop id="stop50790" stop-opacity="1" stop-color="#000000" offset="100%"></stop>
  </linearGradient>
  <linearGradient gradientTransform="rotate(-30)" spreadMethod="pad" y2="30%" x2="-10%" y1="120%" x1="30%" id="3d_gradient3-logo-b884d333-0c5b-4b62-a0bd-c4214cc8f5f5">
    <stop id="stop50793" stop-opacity="1" stop-color="#ffffff" offset="0%"></stop>
    <stop id="stop50795" stop-opacity="1" stop-color="#cccccc" offset="50%"></stop>
    <stop id="stop50797" stop-opacity="1" stop-color="#000000" offset="100%"></stop>
  </linearGradient>
  <g id="logo-group">
    <image xlink:href="" id="container" x="272" y="144" width="480" height="480" style="display: none;" transform="translate(0 0)"></image>
    <g id="logo-center" transform="translate(0 0)">
      <image xlink:href="" id="icon_container" style="display: none;" x="0" y="0"></image>
      <g id="slogan" style="font-style:oblique;font-weight:normal;font-size:32px;line-height:1;font-family:'Fanwood Text';font-variant-ligatures:none;text-align:center;text-anchor:middle" transform="translate(0 0)"></g>
      <g id="title" style="font-style:normal;font-weight:normal;font-size:72px;line-height:1;font-family:'Brandmark Serif 2';font-variant-ligatures:normal;text-align:center;text-anchor:middle" transform="translate(0 0)">
        <path id="path50816" style="font-style:normal;font-weight:normal;font-size:72px;line-height:1;font-family:'Brandmark Serif 2';font-variant-ligatures:normal;text-align:center;text-anchor:middle" d="m 442.32425,-31.788 0.144,-0.072 c -1.008,-10.764 -1.044,-16.812 -0.576,-20.592 l -0.144,-0.072 c -2.772,0.54 -8.532,0.612 -13.068,0.324 v 0.144 c 5.616,2.124 10.404,9.036 13.644,20.268 z m -51.768,13.824 c 7.056,0.72 14.76,-3.96 14.76,-11.34 0,-4.968 -3.456,-10.368 -3.456,-16.092 0,-3.924 1.656,-6.3 9,-6.66 V -52.2 c -11.304,-0.144 -17.208,3.528 -17.208,12.168 0,6.156 2.952,11.124 2.952,15.876 0,4.032 -2.16,5.76 -6.048,6.048 z M 410.71625,0 h 18.324 v -0.144 c -2.88,-0.72 -4.572,-2.916 -4.572,-6.516 v -40.32 c 0,-3.24 0.252,-4.716 0.612,-5.076 V -52.2 h -10.404 v 0.144 c 0.36,0.36 0.612,1.836 0.612,5.076 v 40.32 c 0,3.6 -1.692,5.796 -4.572,6.516 z" stroke-width="0" stroke-linejoin="miter" stroke-miterlimit="2" fill="#303030" stroke="#303030" transform="translate(0 324.25502067) translate(311.19732124999996 19.88492) scale(1.67) translate(-390.55625 52.524)"></path>
        <path id="path50818" style="font-style:normal;font-weight:normal;font-size:72px;line-height:1;font-family:'Brandmark Serif 2';font-variant-ligatures:normal;text-align:center;text-anchor:middle" d="m 442.79338,0 h 17.856 v -0.144 c -2.88,-0.72 -4.608,-2.88 -4.608,-6.48 V -57.6 c -4.428,1.692 -8.42401,2.844 -13.572,3.924 v 0.144 c 3.24,0.54 4.93199,2.376 4.93199,6.768 v 40.14 c 0,3.6 -1.72799,5.76 -4.60799,6.48 z m 34.236,0.288 c 3.59999,0 6.76799,-1.224 8.85599,-2.844 l -0.072,-0.144 c -4.28399,1.836 -6.12,-0.792 -6.12,-6.228 0,-6.264 0.32401,-11.124 0.32401,-16.74 0,-7.74 -3.60001,-10.62 -9,-10.62 -4.71601,0 -8.712,2.34 -11.37601,5.184 l 0.072,0.144 c 1.512,-1.224 3.85201,-2.772 6.588,-2.772 3.34801,0 4.89601,2.556 4.89601,8.64 0,5.724 -0.32401,11.376 -0.32401,17.1 0,4.536 0.792,8.28 6.15601,8.28 z" stroke-width="0" stroke-linejoin="miter" stroke-miterlimit="2" fill="#454132" stroke="#454132" transform="translate(0 324.25502067) translate(397.89224835000005 11.408000000000008) scale(1.67) translate(-442.46938 57.6)"></path>
        <path id="path50820" style="font-style:normal;font-weight:normal;font-size:72px;line-height:1;font-family:'Brandmark Serif 2';font-variant-ligatures:normal;text-align:center;text-anchor:middle" d="m 505.13412,0.288 c 10.008,0.072 14.40001,-6.372 15.3,-9.504 l -0.144,-0.036 c -1.58399,3.78 -6.192,8.316 -12.06,8.316 -7.632,0 -11.412,-7.596 -11.484,-17.928 -0.036,-9.036 3.024,-16.488 7.056,-17.28 v -0.144 c -9.86399,0.36 -16.956,8.424 -16.704,19.44 0.252,10.836 7.596,17.064 18.036,17.136 z m -4.78799,-20.052 20.77199,-0.18 c -0.252,-9.072 -5.57999,-15.912 -14.076,-16.344 v 0.144 c 2.7,1.008 4.68,4.788 4.788,9.468 0.072,4.572 -1.728,6.084 -11.48399,6.768 z" stroke-width="0" stroke-linejoin="miter" stroke-miterlimit="2" fill="#5a5135" stroke="#5a5135" transform="translate(0 324.25502067) translate(472.41137245000004 46.99904000000001) scale(1.67) translate(-487.09161 36.288)"></path>
        <path id="path50822" style="font-style:normal;font-weight:normal;font-size:72px;line-height:1;font-family:'Brandmark Serif 2';font-variant-ligatures:normal;text-align:center;text-anchor:middle" d="M 542.96225,0.288 V 0.144 c -4.608,-0.792 -8.136,-8.532 -8.388,-18.36 -0.252,-9.324 3.024,-17.136 7.416,-17.928 v -0.144 c -10.224,0.36 -17.316,8.424 -17.064,18.936 0.252,10.548 7.74,17.568 18.036,17.64 z m 3.24,0 c 10.548,-0.36 17.316,-8.424 17.064,-18.972 -0.252,-10.512 -7.74,-17.532 -18.036,-17.604 v 0.144 c 4.608,1.008 8.208,8.64 8.388,18.324 0.18,9.36 -3.024,17.172 -7.416,17.964 z" stroke-width="0" stroke-linejoin="miter" stroke-miterlimit="2" fill="#6f6237" stroke="#6f6237" transform="translate(0 324.25502067) translate(535.5843495500002 46.99904000000001) scale(1.67) translate(-524.91974 36.288)"></path>
        <path id="path50824" style="font-style:normal;font-weight:normal;font-size:72px;line-height:1;font-family:'Brandmark Serif 2';font-variant-ligatures:normal;text-align:center;text-anchor:middle" d="m 566.94275,0 h 18.756 v -0.144 c -3.24,-0.72 -5.328,-2.88 -5.328,-6.48 V -36.54 c -4.428,1.692 -8.604,2.844 -13.752,3.924 v 0.144 c 3.24,0.54 4.932,2.376 4.932,6.768 v 19.08 c 0,3.6 -1.728,5.76 -4.608,6.48 z m 24.984,-22.104 c 1.62,-4.68 3.132,-8.388 4.68,-12.204 -1.512,-1.116 -3.564,-2.16 -5.724,-2.16 -3.672,0 -6.696,3.096 -8.352,9.432 l 0.144,0.036 c 1.116,-2.556 2.088,-3.42 3.492,-3.42 2.34,0 5.184,3.276 5.616,8.28 z" stroke-width="0" stroke-linejoin="miter" stroke-miterlimit="2" fill="#84723a" stroke="#84723a" transform="translate(0 324.25502067) translate(605.2216962500002 46.5782) scale(1.67) translate(-566.61875 36.54)"></path>
        <path id="path50826" style="font-style:normal;font-weight:normal;font-size:72px;line-height:1;font-family:'Brandmark Serif 2';font-variant-ligatures:normal;text-align:center;text-anchor:middle" d="m 622.5785,0.252 c 3.204,0 6.372,-1.188 8.46,-2.808 l -0.072,-0.144 c -4.284,1.836 -6.084,-0.828 -6.084,-6.264 0,-6.264 0.288,-10.98 0.288,-16.704 0,-9.144 -4.788,-10.62 -8.568,-10.62 -1.692,0 -3.06,0.288 -3.96,0.54 l 0.036,0.144 c 3.672,-0.36 3.564,3.492 3.564,10.044 0,6.156 -0.288,11.7 -0.288,17.532 0,4.536 0.792,8.28 6.624,8.28 z m -23.832,-22.032 c 3.132,-6.696 6.588,-11.664 10.728,-13.212 l -0.036,-0.144 c -3.204,0.648 -7.236,1.008 -10.116,-0.756 l -0.144,0.072 c 0.684,3.96 0.576,8.604 -0.576,13.968 z m 6.156,22.068 c 4.428,0 7.416,-2.088 8.82,-3.384 l -0.072,-0.144 c -1.116,0.756 -2.484,1.368 -3.816,1.368 -3.132,0 -4.968,-3.384 -4.968,-7.74 0,-5.112 2.412,-10.044 8.136,-11.16 v -0.144 c -7.308,0.252 -17.784,2.844 -17.784,12.204 0,5.796 4.176,9 9.684,9 z" stroke-width="0" stroke-linejoin="miter" stroke-miterlimit="2" fill="#99833c" stroke="#99833c" transform="translate(0 324.25502067) translate(652.9832787500002 46.99904000000001) scale(1.67) translate(-595.2185 36.288)"></path>
      </g>
      <image xlink:href="" id="icon" style="display: none;" x="0" y="0"></image>
    </g>
  </g>
</svg>